# xmcd
#
# Track frame offsets:
#	150
#	11587
#	31427
#	47171
#	66277
#	79709
#	95521
#	109836
#	127945
#	142770
#	160490
#	177204
#	188951
#	204169
#	219095
#
# Disc length: 3163 seconds
#
# Revision: 0
# Processed by: cddbd v1.5.2PL0 Copyright (c) Steve Scherf et al.
# Submitted via: audiograbber 1.83.01
#
DISCID=c40c590f
DTITLE=Crystal Gayle - CKC 48
DYEAR=1900
DGENRE=
TTITLE0=Don't it Make My Brown Eyes Blue
TTITLE1=Cry
TTITLE2=When I Dream
TTITLE3=Half the Way
TTITLE4=I'll do It All Over Again
TTITLE5=You Never Gave Up On Me
TTITLE6=Why Have You Left the One You Left Me For
TTITLE7=You Never Miss a Real Good Thing
TTITLE8=If You Ever Change Your Mind
TTITLE9=Too Many Lovers
TTITLE10=Its Like We Never Said Goodbye
TTITLE11=Somebody Loves You
TTITLE12=The Blue Side
TTITLE13=Talking In Your Sleep
TTITLE14=You and I
EXTD=ckc 48 karaoke
EXTT0=
EXTT1=
EXTT2=
EXTT3=
EXTT4=
EXTT5=
EXTT6=
EXTT7=
EXTT8=
EXTT9=
EXTT10=
EXTT11=
EXTT12=
EXTT13=
EXTT14=
PLAYORDER=
